<svg xmlns="http://www.w3.org/2000/svg" viewBox="0 0 640 760"><defs><linearGradient id="g" x1="0" y1="0" x2="1" y2="1"><stop stop-color="#7a62ff"/><stop offset="1" stop-color="#39c7a0"/></linearGradient><filter id="sh"><feDropShadow dx="0" dy="20" stdDeviation="20" flood-opacity=".15"/></filter></defs><ellipse cx="320" cy="700" rx="170" ry="30" fill="#dbe7f5"/><g filter="url(#sh)"><circle cx="320" cy="160" r="90" fill="#f1b88f"/><path d="M225 170Q205 50 320 48q120 5 100 155-45-76-195-33z" fill="#4b2e28"/><path d="M235 142Q180 215 215 300" fill="none" stroke="#4b2e28" stroke-width="32" stroke-linecap="round"/><path d="M405 142Q460 215 425 300" fill="none" stroke="#4b2e28" stroke-width="32" stroke-linecap="round"/><circle cx="286" cy="170" r="8"/><circle cx="354" cy="170" r="8"/><path d="M292 202q28 20 56 0" fill="none" stroke="#172033" stroke-width="7" stroke-linecap="round"/><path d="M230 270Q320 225 410 270l55 250H175z" fill="#f3f6ff"/><path d="M260 278h120v130H260z" fill="url(#g)"/><path d="M230 285Q150 330 120 420" fill="none" stroke="#f1b88f" stroke-width="38" stroke-linecap="round"/><path d="M410 285Q480 320 520 240" fill="none" stroke="#f1b88f" stroke-width="36" stroke-linecap="round"/><circle cx="520" cy="220" r="32" fill="#f4b927"/><text x="507" y="232" font-family="Arial" font-size="28" font-weight="900" fill="white">X</text><path d="M235 515l-18 140M405 515l22 140" stroke="#6c5ce7" stroke-width="50" stroke-linecap="round"/><path d="M185 662h75M390 662h78" stroke="#fff" stroke-width="28" stroke-linecap="round"/></g></svg>
